<svg width="588" height="111" viewBox="0 0 588 111" fill="none" xmlns="http://www.w3.org/2000/svg">
<g clip-path="url(#clip0_7_3)">
<path d="M97.7247 83.469C89.2785 99.8489 72.6349 110.958 52.0299 110.958C19.3766 110.958 0.290649 87.2766 0.290649 58.0638C0.290649 28.8494 19.3766 5.168 52.0299 5.168C72.5773 5.168 89.0109 16.0337 97.4845 32.1126L72.9161 42.5047C68.7858 33.5975 61.0592 27.6294 51.4508 27.6294C35.8297 27.6294 26.6993 41.2544 26.6993 58.0623C26.6993 74.8684 35.8297 88.4934 51.4508 88.4934C61.0392 88.4934 68.8287 82.4478 72.9679 73.4456L97.7247 83.469Z" fill="black"/>
<path d="M157.718 39.8248H181.287V107.755H157.718V101.88C152.063 107.097 144.792 110.237 136.859 110.237C118.83 110.237 104.216 94.034 104.216 74.0464C104.216 54.0589 118.83 37.856 136.859 37.856C144.792 37.856 152.063 40.9971 157.718 46.2117V39.8248ZM157.718 74.0464C157.718 65.4446 151.609 58.47 143.36 58.47C135.111 58.47 128.424 65.4446 128.424 74.0464C128.424 82.6497 135.111 89.6243 143.36 89.6243C151.609 89.6243 157.718 82.6482 157.718 74.0464Z" fill="black"/>
<path d="M249.051 84.7277C249.051 103.304 231.953 110.231 217.631 110.231C203.309 110.231 191.232 102.434 191.232 102.434L199.732 85.52C199.732 85.52 209.087 92.3923 218.275 92.3923C222.108 92.3923 225.615 90.0331 225.615 87.2394C225.615 76.718 196.257 85.8366 196.257 62.0012C196.257 43.0881 213.283 37.424 225.745 37.424C232.756 37.424 241.73 39.2126 246.991 41.7849L239.135 57.3769C239.135 57.3769 232.246 53.9394 226.517 53.9394C221.605 53.9394 219.307 56.4106 219.307 58.83C219.307 66.8603 249.052 60.7153 249.051 84.7277Z" fill="black"/>
<path d="M329.903 63.5093V107.741H306.336V72.3431C306.336 61.4254 302.552 57.5298 295.781 57.5298C285.976 57.5298 283.808 65.2906 283.808 70.8697V107.741H260.24V0.992004H283.808V48.221C283.808 48.221 289.555 38.503 304.665 38.503C318.119 38.503 329.903 46.1744 329.903 63.5093Z" fill="black"/>
<path d="M437.475 83.469C429.028 99.8489 412.385 110.958 391.78 110.958C359.127 110.958 340.041 87.2766 340.041 58.0638C340.041 28.8494 359.127 5.168 391.78 5.168C412.327 5.168 428.761 16.0337 437.234 32.1126L412.666 42.5047C408.536 33.5975 400.809 27.6294 391.201 27.6294C375.58 27.6294 366.449 41.2544 366.449 58.0623C366.449 74.8684 375.58 88.4934 391.201 88.4934C400.789 88.4934 408.579 82.4478 412.718 73.4456L437.475 83.469Z" fill="black"/>
<path d="M516.434 39.872V83.633C516.434 108.788 490.576 110.169 481.279 110.169C471.983 110.169 446.126 108.788 446.126 83.633V39.872H469.693V79.5287C469.693 82.998 471.022 90.6117 481.279 90.6117C491.537 90.6117 492.865 82.998 492.865 79.5287V39.872H516.434Z" fill="black"/>
<path d="M568.971 90.6568V110.214C555.172 110.214 533.514 107.303 533.514 83.7069V60.6981H526.077V39.9156H533.514V19.568H557.081V79.5724C557.081 83.6105 559.272 90.6568 568.971 90.6568Z" fill="black"/>
<path d="M561.568 53.3649C561.568 45.9225 567.414 39.8868 574.628 39.8868C581.84 39.8868 587.687 45.9225 587.687 53.3649C587.687 60.809 581.84 66.8431 574.628 66.8431C567.414 66.8431 561.568 60.809 561.568 53.3649Z" fill="#272C2F"/>
</g>
<defs>
<clipPath id="clip0_7_3">
<rect width="588" height="111" fill="white"/>
</clipPath>
</defs>
</svg>
