<svg width="155" height="30" viewBox="0 0 155 30" fill="none" xmlns="http://www.w3.org/2000/svg">
<g clip-path="url(#clip0_65_500)">
<path d="M25.6795 21.9336C23.46 26.2378 19.0865 29.157 13.6721 29.157C5.09164 29.157 0.076355 22.9341 0.076355 15.2578C0.076355 7.58101 5.09164 1.35815 13.6721 1.35815C19.0714 1.35815 23.3897 4.21338 25.6163 8.43848L19.1604 11.1693C18.0751 8.82867 16.0447 7.26043 13.5199 7.26043C9.41508 7.26043 7.01587 10.8407 7.01587 15.2574C7.01587 19.6736 9.41509 23.2539 13.5199 23.2539C16.0395 23.2539 18.0864 21.6653 19.174 19.2997L25.6795 21.9336Z" fill="white"/>
<path d="M41.4442 10.465H47.6375V28.3154H41.4442V26.7714C39.9581 28.1424 38.0474 28.9674 35.9631 28.9674C31.2255 28.9674 27.3852 24.7097 27.3852 19.4575C27.3852 14.2053 31.2255 9.94763 35.9631 9.94763C38.0474 9.94763 39.9581 10.773 41.4442 12.1433V10.465ZM41.4442 19.4575C41.4442 17.1972 39.8388 15.3644 37.6712 15.3644C35.5036 15.3644 33.7465 17.1972 33.7465 19.4575C33.7465 21.7182 35.5036 23.551 37.6712 23.551C39.8388 23.551 41.4442 21.7178 41.4442 19.4575Z" fill="white"/>
<path d="M65.444 22.2643C65.444 27.1456 60.9512 28.9658 57.1877 28.9658C53.4242 28.9658 50.2509 26.9171 50.2509 26.9171L52.4844 22.4725C52.4844 22.4725 54.9426 24.2783 57.357 24.2783C58.3642 24.2783 59.2858 23.6584 59.2858 22.9243C59.2858 20.1595 51.5711 22.5557 51.5711 16.2923C51.5711 11.3225 56.0452 9.83411 59.3199 9.83411C61.1621 9.83411 63.5204 10.3041 64.9028 10.98L62.8383 15.0772C62.8383 15.0772 61.0282 14.1739 59.5226 14.1739C58.2318 14.1739 57.628 14.8233 57.628 15.459C57.628 17.5692 65.4443 15.9544 65.444 22.2643Z" fill="white"/>
<path d="M86.6898 16.6887V28.3116H80.497V19.0099C80.497 16.141 79.5028 15.1174 77.7235 15.1174C75.147 15.1174 74.5772 17.1567 74.5772 18.6228V28.3116H68.3842V0.260742H74.5772V12.6713C74.5772 12.6713 76.0875 10.1176 80.058 10.1176C83.5933 10.1176 86.6898 12.1335 86.6898 16.6887Z" fill="white"/>
<path d="M114.957 21.9336C112.737 26.2378 108.364 29.157 102.949 29.157C94.369 29.157 89.3538 22.9341 89.3538 15.2578C89.3538 7.58101 94.369 1.35815 102.949 1.35815C108.349 1.35815 112.667 4.21338 114.894 8.43848L108.438 11.1693C107.352 8.82867 105.322 7.26043 102.797 7.26043C98.6925 7.26043 96.2933 10.8407 96.2933 15.2574C96.2933 19.6736 98.6925 23.2539 102.797 23.2539C105.317 23.2539 107.364 21.6653 108.451 19.2997L114.957 21.9336Z" fill="white"/>
<path d="M135.705 10.4774V21.9767C135.705 28.5867 128.911 28.9496 126.468 28.9496C124.025 28.9496 117.23 28.5867 117.23 21.9767V10.4774H123.423V20.8982C123.423 21.8098 123.772 23.8105 126.468 23.8105C129.163 23.8105 129.512 21.8098 129.512 20.8982V10.4774H135.705Z" fill="white"/>
<path d="M149.511 23.8224V28.9614C145.885 28.9614 140.193 28.1966 140.193 21.9961V15.95H138.239V10.4889H140.193V5.14209H146.386V20.9097C146.386 21.9708 146.962 23.8224 149.511 23.8224Z" fill="white"/>
<path d="M147.565 14.023C147.565 12.0673 149.102 10.4813 150.997 10.4813C152.892 10.4813 154.429 12.0673 154.429 14.023C154.429 15.9791 152.892 17.5647 150.997 17.5647C149.102 17.5647 147.565 15.9791 147.565 14.023Z" fill="#EEEEEE"/>
</g>
<defs>
<clipPath id="clip0_65_500">
<rect width="154.511" height="29.1679" fill="white"/>
</clipPath>
</defs>
</svg>
