<svg width="25" height="25" viewBox="0 0 25 25" fill="none" xmlns="http://www.w3.org/2000/svg">
<path d="M3.58545 6.50635H5.58545H21.5854" stroke="white" stroke-width="2" stroke-linecap="round" stroke-linejoin="round"/>
<path d="M19.5854 6.50635V20.5063C19.5854 21.0368 19.3747 21.5455 18.9997 21.9206C18.6246 22.2956 18.1159 22.5063 17.5854 22.5063H7.58545C7.05502 22.5063 6.54631 22.2956 6.17124 21.9206C5.79616 21.5455 5.58545 21.0368 5.58545 20.5063V6.50635M8.58545 6.50635V4.50635C8.58545 3.97591 8.79616 3.46721 9.17124 3.09213C9.54631 2.71706 10.055 2.50635 10.5854 2.50635H14.5854C15.1159 2.50635 15.6246 2.71706 15.9997 3.09213C16.3747 3.46721 16.5854 3.97591 16.5854 4.50635V6.50635" stroke="white" stroke-width="2" stroke-linecap="round" stroke-linejoin="round"/>
<path d="M10.5854 11.5063V17.5063" stroke="white" stroke-width="2" stroke-linecap="round" stroke-linejoin="round"/>
<path d="M14.5854 11.5063V17.5063" stroke="white" stroke-width="2" stroke-linecap="round" stroke-linejoin="round"/>
</svg>
